#!OML:ASF E:\Style4\Style4.ASF
:FULLY-SPECIFIED
:DEGREES
808
root -0.16996 17.2153 -1.59508 5.59089 -11.792 1.93523
lowerback 15.2826 2.34059 -5.70235
upperback 8.22397 2.1662 -5.70328
thorax 0.208498 1.00155 -3.11312
lowerneck 6.19703 -1.99431 -7.46335
upperneck -0.545327 -3.24922 -2.48621
head -1.13008 -1.5435 0.563628
rclavicle 2.38542e-015 -2.8625e-014
rhumerus 42.7251 11.2656 -59.8416
rradius 124.518
rwrist 12.2368
rhand 31.4231 -6.44019
rfingers 7.12502
rthumb 54.9816 -24.5922
lclavicle 2.38542e-015 -2.8625e-014
lhumerus -2.15712 -34.0261 81.5443
lradius 124.411
lwrist -16.047
lhand 22.0234 43.2701
lfingers 7.12502
lthumb 46.4151 66.1898
rfemur -33.208 2.72806 17.7451
rtibia 47.5282
rfoot -18.8633 -10.291
rtoes -11.2933
lfemur -28.5537 6.96238 -18.8537
ltibia 46.1631
lfoot -22.6483 10.823
ltoes -17.542
809
root -0.193455 17.2057 -1.60686 5.58539 -11.5343 1.98109
lowerback 15.4455 2.49026 -5.6012
upperback 8.34692 2.36671 -5.82174
thorax 0.267483 1.1071 -3.33168
lowerneck 6.01045 -1.97714 -7.64358
upperneck -0.58479 -3.21897 -2.32424
head -1.10677 -1.53084 0.641342
rclavicle 2.06736e-014 6.20208e-014
rhumerus 43.1224 11.5136 -59.5024
rradius 123.728
rwrist 11.9175
rhand 31.8752 -6.47444
rfingers 7.12502
rthumb 55.3845 -24.3313
lclavicle 2.06736e-014 6.20208e-014
lhumerus -1.74352 -34.3082 81.3108
lradius 124.396
lwrist -15.8202
lhand 21.601 43.4965
lfingers 7.12502
lthumb 46.0235 66.5812
rfemur -33.3563 2.72139 17.7818
rtibia 47.8183
rfoot -18.9698 -10.494
rtoes -11.3815
lfemur -28.6758 6.90004 -18.8054
ltibia 46.2319
lfoot -22.5515 10.6184
ltoes -17.3152
810
root -0.216784 17.1978 -1.61485 5.52395 -11.2781 2.1905
lowerback 15.5811 2.6738 -5.65455
upperback 8.47194 2.5933 -5.99554
thorax 0.343739 1.22216 -3.52654
lowerneck 5.81097 -1.98862 -7.56985
upperneck -0.523561 -3.20518 -2.25652
head -1.05316 -1.52913 0.64563
rclavicle 2.78299e-014 2.06736e-014
rhumerus 43.3912 11.7283 -59.2777
rradius 122.961
rwrist 11.5316
rhand 32.3499 -6.38863
rfingers 7.12502
rthumb 55.8063 -23.9276
lclavicle 2.78299e-014 2.06736e-014
lhumerus -1.27116 -34.6036 81.016
lradius 124.303
lwrist -15.7417
lhand 21.5081 43.4318
lfingers 7.12502
lthumb 45.9373 66.5524
rfemur -33.4483 2.65699 17.6377
rtibia 48.111
rfoot -19.0642 -10.6952
rtoes -11.2809
lfemur -28.7388 6.85112 -18.9473
ltibia 46.2755
lfoot -22.4908 10.5145
ltoes -17.794
811
root -0.238875 17.19 -1.62021 5.44328 -11.0285 2.48674
lowerback 15.6673 2.8601 -5.765
upperback 8.56973 2.81899 -6.18548
thorax 0.41718 1.33577 -3.70546
lowerneck 5.88189 -2.01386 -7.41898
upperneck -0.618314 -3.23778 -2.22961
head -1.09626 -1.54208 0.632029
rclavicle 3.18055e-014 1.59028e-014
rhumerus 43.4732 12.0337 -59.1453
rradius 122.241
rwrist 11.3033
rhand 32.7716 -6.20407
rfingers 7.12502
rthumb 56.18 -23.4534
lclavicle 3.18055e-014 1.59028e-014
lhumerus -0.854696 -34.8294 80.7814
lradius 124.197
lwrist -15.8025
lhand 21.7877 43.3731
lfingers 7.12502
lthumb 46.1967 66.3853
rfemur -33.5234 2.5504 17.3872
rtibia 48.3828
rfoot -19.2146 -10.8178
rtoes -11.4624
lfemur -28.7707 6.75302 -19.1859
ltibia 46.3153
lfoot -22.54 10.3917
ltoes -17.9351
812
root -0.25911 17.1825 -1.62709 5.38266 -10.7817 2.63796
lowerback 15.7726 3.00342 -5.74647
upperback 8.64284 3.00287 -6.31535
thorax 0.45539 1.4321 -3.88769
lowerneck 6.1087 -2.04803 -7.41156
upperneck -0.771633 -3.30512 -2.06133
head -1.1806 -1.57127 0.691572
rclavicle 2.38542e-014 -6.36111e-014
rhumerus 43.4912 12.4883 -59.0182
rradius 121.562
rwrist 11.3332
rhand 33.1089 -6.11566
rfingers 7.12502
rthumb 56.4782 -23.1283
lclavicle 2.38542e-014 -6.36111e-014
lhumerus -0.623877 -35.0506 80.6242
lradius 124.206
lwrist -15.8814
lhand 21.7708 43.5027
lfingers 7.12502
lthumb 46.181 66.5216
rfemur -33.5821 2.49365 17.2909
rtibia 48.6124
rfoot -19.3956 -10.9119
rtoes -11.1592
lfemur -28.8264 6.67064 -19.2757
ltibia 46.393
lfoot -22.4262 10.2075
ltoes -17.6798
813
root -0.280111 17.1708 -1.63719 5.37472 -10.5217 2.56838
lowerback 15.9075 3.10824 -5.5723
upperback 8.71739 3.15614 -6.34372
thorax 0.479672 1.51625 -4.0453
lowerneck 6.17615 -2.09677 -7.54889
upperneck -0.769336 -3.3778 -1.78332
head -1.18395 -1.6116 0.805611
rclavicle -1.59028e-015 3.02153e-014
rhumerus 43.5499 12.9637 -58.8948
rradius 121.001
rwrist 11.2164
rhand 33.7991 -6.21783
rfingers 7.12502
rthumb 57.0862 -22.7318
lclavicle -1.59028e-015 3.02153e-014
lhumerus -0.47362 -35.2162 80.5306
lradius 124.24
lwrist -15.9366
lhand 21.4358 43.5696
lfingers 7.12502
lthumb 45.8702 66.718
rfemur -33.6596 2.48234 17.4454
rtibia 48.7964
rfoot -19.3924 -11.1659
rtoes -10.8536
lfemur -28.9685 6.61864 -19.1088
ltibia 46.5527
lfoot -22.336 10.0339
ltoes -17.628
814
root -0.302609 17.1579 -1.6485 5.41824 -10.2499 2.47799
lowerback 16.0386 3.22091 -5.35234
upperback 8.78136 3.32563 -6.39287
thorax 0.50025 1.61115 -4.25386
lowerneck 6.13028 -2.18748 -7.47218
upperneck -0.705922 -3.48045 -1.59965
head -1.15101 -1.66887 0.85139
rclavicle -2.3059e-014 -5.08889e-014
rhumerus 43.5339 13.4221 -58.9344
rradius 120.55
rwrist 10.9873
rhand 34.7581 -6.53734
rfingers 7.12502
rthumb 57.9263 -22.3247
lclavicle -2.3059e-014 -5.08889e-014
lhumerus -0.358072 -35.3866 80.412
lradius 124.264
lwrist -15.9613
lhand 21.3153 43.4567
lfingers 7.12502
lthumb 45.7583 66.6512
rfemur -33.8095 2.47798 17.63
rtibia 48.9616
rfoot -19.2864 -11.5212
rtoes -11.1722
lfemur -29.207 6.55961 -18.9167
ltibia 46.7684
lfoot -22.3073 9.89497
ltoes -17.8472
815
root -0.325097 17.1445 -1.65971 5.50234 -9.90093 2.35712
lowerback 16.1978 3.2803 -5.0687
upperback 8.77576 3.42699 -6.45575
thorax 0.434268 1.67579 -4.50608
lowerneck 6.29414 -2.24608 -7.25142
upperneck -0.746222 -3.55483 -1.48771
head -1.19153 -1.7064 0.855052
rclavicle 3.65764e-014 -2.70347e-014
rhumerus 43.3742 14.1435 -59.0876
rradius 120.111
rwrist 11.17
rhand 35.2689 -6.78689
rfingers 7.12502
rthumb 58.3712 -22.1705
lclavicle 3.65764e-014 -2.70347e-014
lhumerus -0.355175 -35.4595 80.2708
lradius 124.24
lwrist -15.9863
lhand 21.5182 43.3747
lfingers 7.12502
lthumb 45.9467 66.4914
rfemur -33.9887 2.39994 17.8524
rtibia 49.1571
rfoot -19.3171 -11.756
rtoes -11.465
lfemur -29.5133 6.47806 -18.704
ltibia 47.0152
lfoot -22.2458 9.66925
ltoes -17.6572
816
root -0.345606 17.1303 -1.66988 5.52159 -9.5818 2.28758
lowerback 16.4705 3.32087 -4.86467
upperback 8.72185 3.47857 -6.49179
thorax 0.249899 1.71206 -4.68615
lowerneck 6.62997 -2.25573 -7.12457
upperneck -0.869329 -3.58907 -1.40931
head -1.28925 -1.71928 0.867905
rclavicle 2.3059e-014 2.22639e-014
rhumerus 43.1188 15.1009 -59.2314
rradius 119.55
rwrist 11.8903
rhand 34.8655 -6.28748
rfingers 7.12502
rthumb 58.0199 -21.991
lclavicle 2.3059e-014 2.22639e-014
lhumerus -0.464495 -35.4472 80.2153
lradius 124.154
lwrist -16.0089
lhand 21.7014 43.3989
lfingers 7.12502
lthumb 46.1167 66.4447
rfemur -34.1227 2.2995 18.0127
rtibia 49.4117
rfoot -19.5171 -11.8381
rtoes -11.1057
lfemur -29.7146 6.41797 -18.5532
ltibia 47.2343
lfoot -22.263 9.40746
ltoes -17.2507
817
root -0.363852 17.1136 -1.67823 5.50277 -9.32491 2.29245
lowerback 16.6672 3.43639 -4.76438
upperback 8.76928 3.62973 -6.49072
thorax 0.21216 1.79251 -4.77756
lowerneck 6.77321 -2.32178 -6.93181
upperneck -1.00789 -3.67822 -1.40607
head -1.359 -1.75931 0.843655
rclavicle 7.95139e-016 -7.95139e-015
rhumerus 42.9249 15.6845 -59.4372
rradius 119.142
rwrist 11.6252
rhand 35.8759 -6.33404
rfingers 7.12502
rthumb 58.8976 -21.2218
lclavicle 7.95139e-016 -7.95139e-015
lhumerus -0.465745 -35.5245 80.2848
lradius 124.073
lwrist -16.0425
lhand 21.7399 43.3776
lfingers 7.12502
lthumb 46.1524 66.4084
rfemur -34.2451 2.18496 18.0809
rtibia 49.7085
rfoot -19.7134 -11.8969
rtoes -10.5901
lfemur -29.8386 6.38304 -18.5007
ltibia 47.4272
lfoot -22.2873 9.26779
ltoes -17.6022
